<svg xmlns="http://www.w3.org/2000/svg" xmlns:xlink="http://www.w3.org/1999/xlink" width="938" height="568" viewBox="0 0 938 568">
  <defs>
    <clipPath id="clip-path">
      <rect id="Rectangle_4" data-name="Rectangle 4" width="938" height="568" rx="30" transform="translate(331 733)" fill="#1e40c8"/>
    </clipPath>
    <linearGradient id="linear-gradient" x1="0.13" y1="0.218" x2="0.766" y2="0.763" gradientUnits="objectBoundingBox">
      <stop offset="0" stop-color="#1e40c8"/>
      <stop offset="1" stop-color="#bf0000"/>
    </linearGradient>
  </defs>
  <g id="Mask_Group_1" data-name="Mask Group 1" transform="translate(-331 -733)" clip-path="url(#clip-path)">
    <g id="Group_62" data-name="Group 62" transform="translate(578.637 623.637)">
      <rect id="Rectangle_64" data-name="Rectangle 64" width="1010" height="674" transform="translate(-283.637 28.363)" fill="url(#linear-gradient)"/>
    </g>
    <text id="Alleviate_Your_Trades" data-name="Alleviate Your Trades" transform="translate(638 797)" fill="#fff" font-size="32" font-family="SegoeUI, Segoe UI"><tspan x="0" y="0">Alleviate Your Trades</tspan></text>
    <g id="Group_116" data-name="Group 116" transform="translate(10)">
      <text id="Trading_Tools" data-name="Trading Tools" transform="translate(439 870)" fill="#fff" font-size="20" font-family="Inter-SemiBold, Inter" font-weight="600"><tspan x="0" y="0">Trading Tools</tspan></text>
      <text id="Fair_Conditions" data-name="Fair Conditions" transform="translate(439 1004)" fill="#fff" font-size="20" font-family="Inter-SemiBold, Inter" font-weight="600"><tspan x="0" y="0">Fair Conditions</tspan></text>
      <text id="Advanced_trading_tools_that_are_easy_to_use." data-name="Advanced trading tools that are easy to use." transform="translate(439 888)" fill="#fff" font-size="16" font-family="Inter-Medium, Inter" font-weight="500"><tspan x="0" y="16">Advanced trading tools that are easy </tspan><tspan x="0" y="46">to use.</tspan></text>
      <text id="We_value_our_clients_which_is_why_we_provide_favourable_conditions_for_your_investments." data-name="We value our clients, which is why we provide favourable conditions for your investments." transform="translate(439 1022)" fill="#fff" font-size="16" font-family="Inter-Medium, Inter" font-weight="500"><tspan x="0" y="16">We value our clients, which is why we </tspan><tspan x="0" y="46">provide favourable conditions for your </tspan><tspan x="0" y="76">investments.</tspan></text>
      <g id="ico-tools" transform="translate(385.769 846.573)">
        <path id="Path_300" data-name="Path 300" d="M17.453,8.09a8.107,8.107,0,0,1,6.756,6.864.676.676,0,0,0,.676.581H31.64a.676.676,0,0,0,.676-.73A16.214,16.214,0,0,0,17.561.051a.676.676,0,0,0-.73.676V7.414A.676.676,0,0,0,17.453,8.09Zm14.228,8.783H24.925a.676.676,0,0,0-.662.567,8.107,8.107,0,0,1-12.7,5.229.676.676,0,0,0-.878.068L5.752,27.614a.676.676,0,0,0,0,1,16.214,16.214,0,0,0,26.6-11.066.676.676,0,0,0-.676-.73ZM10.495,9.522a.676.676,0,0,0,.878,0A8.107,8.107,0,0,1,14.967,8.09a.676.676,0,0,0,.567-.662V.726a.676.676,0,0,0-.216-.5.649.649,0,0,0-.459-.176A16.092,16.092,0,0,0,5.793,3.78a.676.676,0,0,0,0,1Zm-.784,11.39a8.107,8.107,0,0,1-.095-9.553.676.676,0,0,0-.068-.878L4.793,5.739a.689.689,0,0,0-.5-.2.676.676,0,0,0-.486.243,16.214,16.214,0,0,0,0,20.848.676.676,0,0,0,.486.243h0a.676.676,0,0,0,.473-.2L9.63,21.8A.676.676,0,0,0,9.711,20.912Z" transform="translate(0 0)" fill="#fff"/>
      </g>
      <g id="thumbs-up" transform="translate(385.344 980.39)">
        <path id="Path_302" data-name="Path 302" d="M0,0H33.22V33.22H0Z" fill="none"/>
        <path id="Path_303" data-name="Path 303" d="M2,29.683H7.537V13.073H2ZM32.451,14.457a2.768,2.768,0,0,0-2.768-2.768H20.942l1.322-6.326a2.214,2.214,0,0,0,.048-.436A2.071,2.071,0,0,0,21.7,3.46L20.229,2l-9.115,9.115a2.786,2.786,0,0,0-.81,1.959V26.915a2.768,2.768,0,0,0,2.768,2.768H25.531a2.76,2.76,0,0,0,2.547-1.689l4.173-9.758a2.768,2.768,0,0,0,.2-1.01V14.575l-.014-.014Z" transform="translate(-0.616 -0.616)" fill="#fff"/>
      </g>
    </g>
    <g id="Group_115" data-name="Group 115" transform="translate(-10)">
      <text id="Multilingual_Customer_Support" data-name="Multilingual Customer Support" transform="translate(903 851)" fill="#fff" font-size="20" font-family="Inter-SemiBold, Inter" font-weight="600"><tspan x="0" y="19">Multilingual Customer Support</tspan></text>
      <text id="Security_and_Privacy" data-name="Security and Privacy" transform="translate(903 985)" fill="#fff" font-size="20" font-family="Inter-SemiBold, Inter" font-weight="600"><tspan x="0" y="19">Security and Privacy</tspan></text>
      <text id="The_most_crucial_aspect_of_online_trading_that_we_ensure_for_our_customers." data-name="The most crucial aspect of online trading that we ensure for our customers." transform="translate(903 1022)" fill="#fff" font-size="16" font-family="Inter-Medium, Inter" font-weight="500"><tspan x="0" y="16">The most crucial aspect of online trading </tspan><tspan x="0" y="46">that we ensure for our customers.</tspan></text>
      <text id="If_you_run_into_any_issues_please_contact_our_customer_service_department." data-name="If you run into any issues, please contact our customer service department." transform="translate(903 888)" fill="#fff" font-size="16" font-family="Inter-Medium, Inter" font-weight="500"><tspan x="0" y="16">If you run into any issues, please contact </tspan><tspan x="0" y="46">our customer service department.</tspan></text>
      <g id="ico-support">
        <g id="Group_4455" data-name="Group 4455">
          <g id="Group_4454" data-name="Group 4454">
            <g id="Group_4453" data-name="Group 4453">
              <g id="Group_4452" data-name="Group 4452">
                <g id="ico-support-2" data-name="ico-support" transform="translate(847 845.436)">
                  <circle id="Ellipse_56" data-name="Ellipse 56" cx="5.123" cy="5.123" r="5.123" transform="translate(19.759)" fill="#fff"/>
                  <path id="Path_301" data-name="Path 301" d="M32.756,10.093A17.564,17.564,0,0,0,24.882,8a17.564,17.564,0,0,0-7.86,2.093A4.391,4.391,0,0,0,14.636,14v.673a2.093,2.093,0,0,0,2.093,2.108h16.3a2.093,2.093,0,0,0,2.093-2.108V14a4.391,4.391,0,0,0-2.371-3.908ZM6.835,16.518l-5.957-1.2A.732.732,0,0,0,0,16.035V27.745a.732.732,0,0,0,.732.732H5.313a2.21,2.21,0,0,0,2.181-1.888l1.083-7.626a2.2,2.2,0,0,0-1.742-2.444Zm23.9,5.386a19.276,19.276,0,0,0-3.835.673.746.746,0,0,0-.556.746h0a3.337,3.337,0,0,1-1.376,2.737,5.547,5.547,0,0,1-3.454.966,30.9,30.9,0,0,1-8.2-1.551.761.761,0,0,1-.556-.849A.732.732,0,0,1,13.7,24.1a30.166,30.166,0,0,0,7.816,1.464,4.01,4.01,0,0,0,2.591-.644,1.888,1.888,0,0,0,.776-1.551,2.5,2.5,0,0,0,0-.351C24.6,21,21.955,20.28,19.218,19.724A12.543,12.543,0,0,1,16.1,18.567a7.918,7.918,0,0,0-3.659-1.054,13.539,13.539,0,0,0-1.756.117.732.732,0,0,0-.629.776,3.5,3.5,0,0,1,0,.776L8.972,26.808a1.771,1.771,0,0,1,0,.2v.146a.732.732,0,0,0,.41.849c3.366,1.551,8.006,3.41,10.377,3.41,2.839,0,8.679-2.927,12.543-4.771,1-.5,1.83-.893,2.371-1.142a.732.732,0,0,0,.454-.644C35.127,23.119,33.342,21.9,30.736,21.9Z" transform="translate(0 3.709)" fill="#fff"/>
                </g>
              </g>
            </g>
          </g>
        </g>
      </g>
      <path id="security" d="M16.071,1.463,4.9,6.426A3.206,3.206,0,0,0,3,9.347v7.5C3,25.706,9.129,33.989,17.364,36,25.6,33.989,31.728,25.706,31.728,16.848v-7.5a3.206,3.206,0,0,0-1.9-2.921L18.657,1.463a3.173,3.173,0,0,0-2.586,0Zm1.293,16.965H28.536C27.69,25,23.3,30.861,17.364,32.7V18.444H6.192v-9.1L17.364,4.383V18.428Z" transform="translate(850.399 978.406)" fill="#fff"/>
    </g>
    <g id="Group_80" data-name="Group 80" transform="translate(0 655)">
      <g id="Rectangle_3" data-name="Rectangle 3" transform="translate(696 511)" fill="none" stroke="#fff" stroke-width="2">
        <rect width="208" height="78" rx="17" stroke="none"/>
        <rect x="1" y="1" width="206" height="76" rx="16" fill="none"/>
      </g>
      <text id="Start_Trading" data-name="Start Trading" transform="translate(737 557)" fill="#fff" font-size="20" font-family="Inter-SemiBold, Inter" font-weight="600"><tspan x="0" y="0">Start Trading</tspan></text>
    </g>
  </g>
</svg>
