<svg xmlns="http://www.w3.org/2000/svg" xmlns:xlink="http://www.w3.org/1999/xlink" width="260" height="207" viewBox="0 0 260 207">
  <defs>
    <clipPath id="clip-path">
      <rect id="Rectangle_2096" data-name="Rectangle 2096" width="260" height="207" transform="translate(412 778.796)" fill="#fff"/>
    </clipPath>
  </defs>
  <g id="img-bull" transform="translate(-412 -778.796)" clip-path="url(#clip-path)">
    <g id="b" transform="translate(411.683 778.88)">
      <g id="c" transform="translate(0 0)">
        <g id="Group_4459" data-name="Group 4459">
          <path id="Path_5298" data-name="Path 5298" d="M102.323,0a102.273,102.273,0,0,1,101.5,91c-1.73-.557-3.49-1.085-5.25-1.584-7.889-3.021-15.925-5.807-22.729-10.763a58.814,58.814,0,0,1-6.188-5.279c5.279,1.73,10.529,3.461,15.807,5.191-1-.557-1.994-1.173-2.962-1.789Q171.2,69.7,160.568,61.529c-6.217-4.78-12.259-9.825-18.066-15.1-2.991-2.727-6.041-5.572-9.854-6.951a19.115,19.115,0,0,0-11.672.029,49.863,49.863,0,0,0-9.649,4.077,179.13,179.13,0,0,0-28.1,18.33,103.275,103.275,0,0,1,54.842-28.477A120.009,120.009,0,0,0,92.851,47.452a117.641,117.641,0,0,0-17.157,11.5,4.109,4.109,0,0,1-.293.469c-5.865,8.094-8.534,17.1-13.021,25.837A19.443,19.443,0,0,1,55.781,93c-.147.323-.293.645-.469.968a18.927,18.927,0,0,1-7.42,1.584,27.006,27.006,0,0,1-11.2-2.493c-3.343-1.466-6.511-3.4-10.089-4.106-5.865-1.173-11.262,1.32-11.2,2.112.059.733,5.015-.616,10.646,2.053,3.519,1.672,3.754,3.255,8.388,6.159a37.3,37.3,0,0,0,8.182,3.871c.587.205,1.2.381,1.818.557a19.111,19.111,0,0,1-5.162.762,27.007,27.007,0,0,1-11.2-2.493c-3.343-1.466-6.511-3.4-10.089-4.106C12.406,96.751,7.391,98.921,7.449,99.6c.059.645,4.6-.587,9.737,1.818,3.783,1.76,4.018,3.7,8.622,6.745a31.649,31.649,0,0,0,8.182,3.871,39.368,39.368,0,0,0,17.86,1.848c.733-.117,1.437-.235,2.141-.411,2.786,2.141,5.572,4.34,8.417,6.657,1.114.909,2.229,1.818,3.314,2.757,9.209,3.519,12.611,6.511,13.9,8.71a22.867,22.867,0,0,0,3.2,3.431c1.144,1.056,2.845,1.789,4.282,1.2a3.386,3.386,0,0,0,.968-.616,2.4,2.4,0,0,0-.029-.792c-.235-1.2-.909-2.376-.645-3.578a1.5,1.5,0,0,1,2.2.616,5.908,5.908,0,0,1,.147,1.613c.557-.792,1.114-1.554,1.642-2.346,1.936-1.349,3.314-2.874,2.141-5.778,0,0-1.114-5.044-1.466-7.039-1.114-6.481,1.261-8.74.821-13.256-.293-2.991-1.789-7.3-7.8-12.288a20.93,20.93,0,0,1,4.868,4.164A19.972,19.972,0,0,1,93,101.8a6.074,6.074,0,0,1,11,4.634c4.34.44,9.531.147,13.843-2.815,5.66-3.871,7.566-10.646,7.449-10.089-1.232,6.8-3.813,9.737-6.188,11.115-1.554.909-5.484,3.373-13.9,3.519-3.813.059-6.364,1.144-7.6,3.079-1.408,2.17-.645,4.956.381,8.417,1.5,5.044,3.314,6.657,5.279,11.232a36.859,36.859,0,0,1,1.466,4.077c1.32,3.021,2.61,6.041,3.9,9.062,1.232,2.9,2.9,4.37,6.188,4.34,4.37-.029,7.918,1.584,11.32,4.751a8.382,8.382,0,0,0,1.525,1.085,14.275,14.275,0,0,0,4.722,3.637c2.112,1.026,4.546,1.525,6.1,3.285a7.331,7.331,0,0,0,1.2-4.106,37.559,37.559,0,0,0-1.085-11.995,4.053,4.053,0,0,1-2.551-.352c-1.29-2.727-4.252-4.223-10.03-5.6-8.945-2.112-10.353-3.431-12.493-14.869a23.1,23.1,0,0,0,7.039,3.2c3.842,1.026,7.1.821,11.408.557,4.106-.264,6.569-.792,6.569-.733a52.638,52.638,0,0,1-12.23,1.5c-1.818.029-3.343,0-4.4-.088,1.554.762,3.079,1.437,4.546,2.082,9.238,2.786,19.209,3.167,28.946,3.226,12.259.059,24.752-.293,36.483,3.285-4.9-.176-9.59-.528-14.488-.733-1.466-.059-3.2,0-4.018,1.232a2.987,2.987,0,0,0,.381,3.431,9.035,9.035,0,0,0,2.962,2.141c1.056.557,2.112,1.144,3.167,1.73l3.255,1.5c3.05,1.437,6.012,2.933,8.886,4.458a225.629,225.629,0,0,1,68.128,55.957,174.136,174.136,0,0,0-65.429-42.965c-3.021-1.114-5.983-2.112-8.916-2.991A102.2,102.2,0,1,1,102.323,0Z" transform="translate(0 0)" fill="#fff"/>
        </g>
      </g>
    </g>
  </g>
</svg>
