<svg xmlns="http://www.w3.org/2000/svg" xmlns:xlink="http://www.w3.org/1999/xlink" width="181.331" height="180" viewBox="0 0 181.331 180">
  <defs>
    <clipPath id="clip-path">
      <rect id="Rectangle_2107" data-name="Rectangle 2107" width="180" height="180" rx="32" transform="translate(0.223 -0.559)" fill="#1e40c8"/>
    </clipPath>
    <linearGradient id="linear-gradient" x1="0.13" y1="0.218" x2="0.766" y2="0.763" gradientUnits="objectBoundingBox">
      <stop offset="0" stop-color="#1e40c8"/>
      <stop offset="1" stop-color="#bf0000"/>
    </linearGradient>
  </defs>
  <g id="favicon" transform="translate(11339 -9034)">
    <g id="Mask_Group_41" data-name="Mask Group 41" transform="translate(-11339.224 9034.559)" clip-path="url(#clip-path)">
      <g id="Group_4462" data-name="Group 4462" transform="translate(-5.423 -28.145)">
        <rect id="Rectangle_2106" data-name="Rectangle 2106" width="191.294" height="213.793" transform="translate(0)" fill="url(#linear-gradient)"/>
      </g>
    </g>
    <g id="Group_4464" data-name="Group 4464" transform="translate(-11687.485 8280.499)">
      <g id="b" transform="translate(364.683 777.828)">
        <g id="c" transform="translate(0 0)">
          <g id="Group_4463" data-name="Group 4463">
            <path id="Path_5300" data-name="Path 5300" d="M64.948,0a64.915,64.915,0,0,1,64.426,57.762c-1.1-.354-2.215-.689-3.332-1.005-5.007-1.917-10.108-3.686-14.427-6.832a37.332,37.332,0,0,1-3.928-3.351c3.351,1.1,6.683,2.2,10.033,3.295-.633-.354-1.266-.745-1.88-1.136q-7.176-4.5-13.924-9.68c-3.946-3.034-7.781-6.236-11.467-9.587-1.9-1.731-3.835-3.537-6.255-4.412a12.133,12.133,0,0,0-7.409.019,31.65,31.65,0,0,0-6.124,2.587A113.7,113.7,0,0,0,52.829,39.3a65.552,65.552,0,0,1,34.81-18.075,76.173,76.173,0,0,0-28.7,8.9,74.669,74.669,0,0,0-10.89,7.3,2.608,2.608,0,0,1-.186.3c-3.723,5.138-5.417,10.852-8.265,16.4a12.341,12.341,0,0,1-4.188,4.914c-.093.2-.186.41-.3.614a12.013,12.013,0,0,1-4.71,1.005,17.142,17.142,0,0,1-7.111-1.582c-2.122-.931-4.133-2.159-6.4-2.606-3.723-.745-7.148.838-7.111,1.34.037.465,3.183-.391,6.757,1.3,2.234,1.061,2.383,2.066,5.324,3.909a23.674,23.674,0,0,0,5.194,2.457c.372.13.763.242,1.154.354a12.13,12.13,0,0,1-3.276.484,17.142,17.142,0,0,1-7.111-1.582c-2.122-.931-4.133-2.159-6.4-2.606-3.537-.707-6.72.67-6.683,1.1.037.41,2.923-.372,6.18,1.154,2.4,1.117,2.55,2.345,5.473,4.281a20.089,20.089,0,0,0,5.194,2.457,24.988,24.988,0,0,0,11.336,1.173c.465-.074.912-.149,1.359-.261,1.768,1.359,3.537,2.755,5.342,4.226.707.577,1.415,1.154,2.1,1.75,5.845,2.234,8,4.133,8.823,5.529A14.514,14.514,0,0,0,52.569,85.7a2.716,2.716,0,0,0,2.718.763,2.149,2.149,0,0,0,.614-.391,1.521,1.521,0,0,0-.019-.5,5.757,5.757,0,0,1-.41-2.271.954.954,0,0,1,1.4.391,3.75,3.75,0,0,1,.093,1.024c.354-.5.707-.987,1.042-1.489,1.229-.856,2.1-1.824,1.359-3.667,0,0-.707-3.2-.931-4.468-.707-4.114.8-5.547.521-8.414-.186-1.9-1.136-4.635-4.952-7.8a13.285,13.285,0,0,1,3.09,2.643,12.677,12.677,0,0,1,1.936,3.09,3.855,3.855,0,0,1,6.981,2.941,13.025,13.025,0,0,0,8.786-1.787,13.948,13.948,0,0,0,4.728-6.4c-.782,4.319-2.42,6.18-3.928,7.055-.987.577-3.481,2.141-8.823,2.234-2.42.037-4.039.726-4.821,1.955-.894,1.378-.41,3.146.242,5.343.949,3.2,2.1,4.226,3.351,7.13a23.4,23.4,0,0,1,.931,2.587c.838,1.917,1.657,3.835,2.476,5.752.782,1.843,1.843,2.774,3.928,2.755a9.991,9.991,0,0,1,7.185,3.016,5.32,5.32,0,0,0,.968.689,9.061,9.061,0,0,0,3,2.308c1.34.652,2.885.968,3.872,2.085a4.653,4.653,0,0,0,.763-2.606,23.84,23.84,0,0,0-.689-7.614,2.573,2.573,0,0,1-1.619-.223c-.819-1.731-2.7-2.681-6.366-3.555-5.678-1.34-6.571-2.178-7.93-9.438a14.659,14.659,0,0,0,4.468,2.029,21.183,21.183,0,0,0,7.241.354c2.606-.168,4.17-.5,4.17-.465a33.41,33.41,0,0,1-7.762.949c-1.154.019-2.122,0-2.792-.056.987.484,1.955.912,2.885,1.322,5.864,1.768,12.193,2.01,18.373,2.048,7.781.037,15.711-.186,23.157,2.085-3.109-.112-6.087-.335-9.2-.465-.931-.037-2.029,0-2.55.782a1.9,1.9,0,0,0,.242,2.178,5.734,5.734,0,0,0,1.88,1.359c.67.354,1.34.726,2.01,1.1L116.25,93c1.936.912,3.816,1.861,5.64,2.829a143.213,143.213,0,0,1,43.242,35.517,110.529,110.529,0,0,0-41.53-27.271c-1.917-.707-3.8-1.34-5.659-1.9A64.872,64.872,0,1,1,64.948,0Z" transform="translate(0 0)" fill="#fff"/>
          </g>
        </g>
      </g>
    </g>
  </g>
</svg>
